<svg width="24" height="24" viewBox="0 0 24 24" fill="none" xmlns="http://www.w3.org/2000/svg">
<path d="M11.9999 19.2001C12.7356 19.2001 13.3333 18.6621 13.3333 18V8.39997C13.3333 7.73752 12.7356 7.20007 11.9999 7.20007C11.2639 7.20007 10.6667 7.73769 10.6667 8.39997V18C10.6667 18.6621 11.2639 19.2001 11.9999 19.2001ZM22.6666 2.39997H18.6666V1.20007C18.6666 0.537625 18.0688 0 17.3332 0H6.66666C5.93061 0 5.33344 0.537625 5.33344 1.20007V2.39997H1.33341C0.59679 2.39997 0 2.93759 0 3.60003C0 4.26248 0.59679 4.79993 1.33341 4.79993V21.5999C1.33341 22.9253 2.52737 24 4.00003 24H20C21.4726 24 22.6668 22.9254 22.6668 21.5999V4.79993C23.4024 4.79993 24 4.26231 24 3.60003C24 2.93776 23.4023 2.39997 22.6666 2.39997ZM20 21.5999H4.00003V4.79993H20V21.5999V21.5999ZM8.00006 19.2001C8.73611 19.2001 9.33328 18.6621 9.33328 18V8.39997C9.33328 7.73752 8.73592 7.20007 8.00006 7.20007C7.26421 7.20007 6.66666 7.73769 6.66666 8.39997V18C6.66666 18.6621 7.26402 19.2001 8.00006 19.2001ZM15.9999 19.2001C16.7356 19.2001 17.3332 18.6621 17.3332 18V8.39997C17.3332 7.73752 16.7356 7.20007 15.9999 7.20007C15.2643 7.20007 14.6665 7.73769 14.6665 8.39997V18C14.6667 18.6621 15.2643 19.2001 15.9999 19.2001Z" fill="#D04343"/>
</svg>
